<svg width="1080" height="1080" viewBox="0 0 1080 1080" fill="none" xmlns="http://www.w3.org/2000/svg">
<g clip-path="url(#clip0)">
<path d="M350.846 358.677C344.046 371.877 351.012 389.177 355.346 396.177L725.346 395.177C726.346 390.843 728.646 379.277 729.846 367.677C731.346 353.177 722.346 345.677 717.346 341.677C712.346 337.677 708.346 337.177 706.346 334.677C704.346 332.177 707.346 307.177 688.846 279.177C670.346 251.177 679.846 227.177 664.846 215.677C649.846 204.177 452.346 198.177 434.346 199.177C416.346 200.177 408.846 215.177 406.846 232.177C404.846 249.177 394.346 276.677 386.846 289.677C379.346 302.677 366.846 340.177 361.846 340.177C356.846 340.177 359.346 342.177 350.846 358.677Z" fill="#FFE3B2"/>
<path d="M359 319.677C367.8 335.277 372 364.51 373 377.177C374.333 367.343 376.9 344.477 376.5 331.677C376 315.677 384 295.677 389 284.677C394 273.677 403.5 270.177 404.5 256.177C405.5 242.177 414 220.177 420.5 214.177C427 208.177 436.5 208.677 429.5 208.677C422.5 208.677 392 211.177 377 216.177C365 220.177 354.667 224.51 350.5 224.677C350.667 239.01 350.6 269.777 349 278.177C347 288.677 348 300.177 359 319.677Z" fill="#282424"/>
<path d="M698.5 333.677C700.1 349.677 697.833 376.677 696.5 388.177C699 382.843 705.2 368.377 710 353.177C716 334.177 718 308.677 721 288.177C724 267.677 720.5 243.177 720 231.677C719.5 220.177 708 190.177 703 177.177C698 164.177 700 169.677 699.5 176.177C699 182.677 684 197.677 679.5 206.177C675 214.677 666.5 222.177 666 226.177C665.5 230.177 673 275.177 675 280.177C677 285.177 686 288.677 688.5 292.677C691 296.677 696.5 313.677 698.5 333.677Z" fill="#282424"/>
<path d="M360 170.177C350.4 188.177 348.667 214.343 349 225.177C373 220.01 421.8 209.677 425 209.677C429 209.677 456 205.177 479.5 209.677C503 214.177 531 217.677 561 222.677C591 227.677 638 220.177 654.5 217.677C667.7 215.677 662 229.177 667 230.677C672 232.177 690 203.677 694 191.677C698 179.677 701.5 179.177 703 154.677C704.5 130.177 678 108.177 663.5 96.6767C649 85.1767 616.5 74.6767 556.5 71.6767C496.5 68.6767 462 75.6767 428 92.1767C394 108.677 372 147.677 360 170.177Z" fill="black"/>
<rect x="199" y="746.677" width="677" height="66" fill="#83513A"/>
<rect x="181" y="767.677" width="36" height="205" fill="#83513A"/>
<rect x="860" y="770.677" width="39" height="205" fill="#83513A"/>
<circle cx="205" cy="774.677" r="28" fill="#83513A"/>
<circle cx="874" cy="774.677" r="28" fill="#83513A"/>
<path d="M287.675 677.677L194 750.677H888L791.303 677.677H287.675Z" fill="#AD694B"/>
<ellipse cx="743.5" cy="644.177" rx="55.5" ry="53.5" fill="#904524"/>
<ellipse cx="334.5" cy="644.177" rx="55.5" ry="53.5" fill="#904524"/>
<rect x="306" y="688.677" width="464" height="40" rx="20" fill="#BB0919"/>
<path d="M750 915.677C736.5 911.677 715 920.677 714 920.677C733.667 945.51 774.6 995.077 781 994.677C789 994.177 797.5 988.677 802.5 984.177C807.5 979.677 806.5 967.677 804.5 958.677C802.5 949.677 795.5 940.177 788 933.177C780.5 926.177 763.5 919.677 750 915.677Z" fill="#565656"/>
<path d="M276.281 422.568C274.54 408.828 285.248 396.677 299.098 396.677H778.034C791.838 396.677 802.532 408.75 800.866 422.452L770.959 668.453C769.555 679.997 759.756 688.677 748.127 688.677H330.27C318.685 688.677 308.908 680.061 307.452 668.568L276.281 422.568Z" fill="#E42132"/>
<path d="M509.52 534.885C509.52 537.333 509.136 539.157 508.368 540.357C507.6 541.557 506.376 542.421 504.696 542.949C506.376 543.477 507.6 544.341 508.368 545.541C509.136 546.741 509.52 548.565 509.52 551.013V562.533C509.52 564.261 509.952 565.581 510.816 566.493C511.728 567.405 513.048 567.861 514.776 567.861H516.072V576.645H511.896C507.432 576.645 504.048 575.541 501.744 573.333C499.44 571.125 498.288 567.933 498.288 563.757V550.725C498.288 549.621 498 548.781 497.424 548.205C496.896 547.629 496.128 547.341 495.12 547.341H492.744V538.557H495.12C496.128 538.557 496.896 538.269 497.424 537.693C498 537.117 498.288 536.277 498.288 535.173V522.141C498.288 517.965 499.44 514.773 501.744 512.565C504.048 510.357 507.432 509.253 511.896 509.253H516.072V518.037H514.776C513.048 518.037 511.728 518.493 510.816 519.405C509.952 520.317 509.52 521.637 509.52 523.365V534.885ZM534.765 521.637V534.957H558.093V544.317H534.765V562.677H523.101V512.277H561.189V521.637H534.765ZM588.221 538.557V547.341H585.845C584.837 547.341 584.045 547.629 583.469 548.205C582.941 548.781 582.677 549.621 582.677 550.725V563.757C582.677 567.933 581.525 571.125 579.221 573.333C576.917 575.541 573.533 576.645 569.069 576.645H564.893V567.861H566.188C567.917 567.861 569.213 567.405 570.077 566.493C570.989 565.581 571.445 564.261 571.445 562.533V551.013C571.445 548.565 571.829 546.741 572.597 545.541C573.365 544.341 574.589 543.477 576.269 542.949C574.589 542.421 573.365 541.557 572.597 540.357C571.829 539.157 571.445 537.333 571.445 534.885V523.365C571.445 521.637 570.989 520.317 570.077 519.405C569.213 518.493 567.917 518.037 566.188 518.037H564.893V509.253H569.069C573.533 509.253 576.917 510.357 579.221 512.565C581.525 514.773 582.677 517.965 582.677 522.141V535.173C582.677 536.277 582.941 537.117 583.469 537.693C584.045 538.269 584.837 538.557 585.845 538.557H588.221Z" fill="white"/>
<path d="M446 272.177C437.6 274.977 420 289.677 424 292.177C428 294.677 434 291.319 438 288.677C442 286.034 451.659 281.284 476.5 286.177C509.5 292.677 508.5 287.677 504 285.677C499.5 283.677 456.5 268.677 446 272.177Z" fill="#141414"/>
<path d="M625.292 272.23C634.111 275.17 652.587 290.602 648.388 293.226C644.189 295.851 637.89 292.326 633.691 289.552C629.491 286.778 619.351 281.791 593.273 286.928C558.629 293.751 559.678 288.502 564.403 286.403C569.127 284.303 614.269 268.556 625.292 272.23Z" fill="#141414"/>
<rect x="610" y="951.677" width="50" height="44" fill="white"/>
<ellipse cx="466" cy="339.177" rx="51" ry="24.5" fill="white"/>
<path d="M631 957.177C631.8 959.977 637 958.677 641 963.177C645 967.677 646.5 983.577 646.5 987.177C646.5 990.777 643.833 994.343 642.5 995.677H694.5H767C788.5 995.677 791.5 986.177 795.5 978.177C799.5 970.177 793.5 947.677 786.5 942.677C779.5 937.677 759.5 930.677 750 926.177C740.5 921.677 734.5 917.177 726.5 918.677C718.5 920.177 699 925.177 679 926.677C659 928.177 640 933.677 634 941.677C629.975 947.043 630 953.677 631 957.177Z" fill="#666666"/>
<mask id="mask0" mask-type="alpha" maskUnits="userSpaceOnUse" x="415" y="314" width="102" height="50">
<ellipse cx="466" cy="339.177" rx="51" ry="24.5" fill="white"/>
</mask>
<g mask="url(#mask0)">
<circle cx="466.5" cy="352.177" r="15.5" fill="black"/>
</g>
<ellipse cx="606" cy="339.177" rx="51" ry="24.5" fill="white"/>
<mask id="mask1" mask-type="alpha" maskUnits="userSpaceOnUse" x="555" y="314" width="102" height="50">
<ellipse cx="606" cy="339.177" rx="51" ry="24.5" fill="white"/>
</mask>
<g mask="url(#mask1)">
<circle cx="606.5" cy="352.177" r="15.5" fill="black"/>
</g>
<path d="M403 1002.18C396.6 1006.18 387.667 1005.51 384 1004.68C383.833 1003.84 383.6 1001.28 384 997.677C384.5 993.177 389 943.677 391 935.677C393 927.677 395.5 930.677 400 932.177C404.5 933.677 430.5 943.177 439.5 947.677C446.7 951.277 484.833 969.51 503 978.177C502 979.01 498.9 980.877 494.5 981.677C489 982.677 441 985.177 429 987.177C417 989.177 411 997.177 403 1002.18Z" fill="#666666"/>
<path d="M688 812.677H400C418.719 824.369 459.867 850.305 474.705 860.509C493.252 873.264 512.83 888.677 520.043 888.677C527.256 888.677 552.501 883.362 563.835 879.642C575.17 875.921 592.687 864.761 603.506 857.852C612.162 852.324 663.442 825.432 688 812.677Z" fill="#282424"/>
<path d="M271 854.677C260.2 834.677 260.833 817.343 262.5 811.177L399.5 813.177C429.333 831.343 491 869.277 499 875.677C509 883.677 530 893.677 544.5 893.177C559 892.677 572.5 902.177 605.5 920.177C638.5 938.177 640 936.177 633.5 941.677C627 947.177 629.5 949.677 633.5 962.677C637.5 975.677 627 985.177 614.5 995.677C602 1006.18 579 998.677 569.5 997.177C560 995.677 516 982.677 502 977.677C488 972.677 428.5 941.177 414 936.177C399.5 931.177 369 922.177 332 914.677C295 907.177 284.5 879.677 271 854.677Z" fill="#282424" stroke="#353030" stroke-width="4"/>
<path d="M559.5 874.677C548.3 880.677 524.167 882.843 513.5 883.177C523 886.343 543.8 892.677 551 892.677C560 892.677 576.5 904.177 585 910.177C593.5 916.177 638 937.177 641 936.677C644 936.177 660 928.677 672 928.677C684 928.677 697 924.677 707.5 921.177C718 917.677 771 902.177 792 889.177C808.8 878.777 816.667 861.177 818.5 853.677V811.177L678.5 813.177C677.667 813.677 674.5 815.677 668.5 819.677C661 824.677 634 838.677 621 843.177C608 847.677 573.5 867.177 559.5 874.677Z" fill="#282424" stroke="#353030" stroke-width="4"/>
<path d="M371 977.677C369 1011.18 375.5 1009.68 375.5 1009.68C375.5 1009.68 381 1009.68 384 1005.68C387 1001.68 388.572 993.794 392 975.677C395.5 957.177 396.5 936.177 395.5 932.677C394.5 929.177 384 928.177 381 929.177C378 930.177 373 944.177 371 977.677Z" fill="#565656"/>
</g>
<defs>
<clipPath id="clip0">
<rect width="1080" height="1080" fill="white"/>
</clipPath>
</defs>
</svg>
